HIERARCHY
ROOT Hips
{
	OFFSET 0.000000 100.481300 0.000000
	CHANNELS 6 Xposition Yposition Zposition Xrotation Yrotation Zrotation
	JOINT Spine
	{
		OFFSET -0.279200 12.230698 -2.892100
		CHANNELS 3 Xrotation Yrotation Zrotation
		JOINT Spine1
		{
			OFFSET -0.325700 14.269203 -3.374200
			CHANNELS 3 Xrotation Yrotation Zrotation
			JOINT Spine2
			{
				OFFSET -0.372300 16.307602 -0.352600
				CHANNELS 3 Xrotation Yrotation Zrotation
				JOINT Neck
				{
					OFFSET -0.418800 17.814194 8.416900
					CHANNELS 3 Xrotation Yrotation Zrotation
					JOINT Head
					{
						OFFSET 0.000000 7.031097 3.806800
						CHANNELS 3 Xrotation Yrotation Zrotation
						JOINT HeadTop_End
						{
							OFFSET 0.000000 24.646606 12.978600
							CHANNELS 3 Xrotation Yrotation Zrotation
							End Site
							{
								OFFSET 0.000000 27.854965 0.000000
							}
						}
					}
				}
				JOINT LeftShoulder
				{
					OFFSET 16.952999 14.495407 -7.737500
					CHANNELS 3 Xrotation Yrotation Zrotation
					JOINT LeftArm
					{
						OFFSET 9.308998 -2.777710 0.208600
						CHANNELS 3 Xrotation Yrotation Zrotation
						JOINT LeftForeArm
						{
							OFFSET 29.972298 0.000000 0.000000
							CHANNELS 3 Xrotation Yrotation Zrotation
							JOINT LeftHand
							{
								OFFSET 26.026505 0.000000 0.000000
								CHANNELS 3 Xrotation Yrotation Zrotation
								JOINT LeftHandThumb1
								{
									OFFSET 12.240501 -7.147949 9.207150
									CHANNELS 3 Xrotation Yrotation Zrotation
									JOINT LeftHandThumb2
									{
										OFFSET 4.138618 -2.389435 2.389433
										CHANNELS 3 Xrotation Yrotation Zrotation
										JOINT LeftHandThumb3
										{
											OFFSET 2.726913 -1.574387 1.574386
											CHANNELS 3 Xrotation Yrotation Zrotation
											JOINT LeftHandThumb4
											{
												OFFSET 3.941010 -2.275345 2.275342
												CHANNELS 3 Xrotation Yrotation Zrotation
												End Site
												{
													OFFSET -0.005798 5.087799 0.009903
												}
											}
										}
									}
								}
								JOINT LeftHandIndex1
								{
									OFFSET 24.424698 -1.985611 5.953459
									CHANNELS 3 Xrotation Yrotation Zrotation
									JOINT LeftHandIndex2
									{
										OFFSET 6.426697 0.000000 0.000000
										CHANNELS 3 Xrotation Yrotation Zrotation
										JOINT LeftHandIndex3
										{
											OFFSET 5.337898 0.000000 0.000000
											CHANNELS 3 Xrotation Yrotation Zrotation
											JOINT LeftHandIndex4
											{
												OFFSET 4.409401 0.000000 0.000000
												CHANNELS 3 Xrotation Yrotation Zrotation
												End Site
												{
													OFFSET 0.000000 4.409363 0.014373
												}
											}
										}
									}
								}
								JOINT LeftHandMiddle1
								{
									OFFSET 23.810104 0.000000 0.000000
									CHANNELS 3 Xrotation Yrotation Zrotation
									JOINT LeftHandMiddle2
									{
										OFFSET 7.176498 0.000000 0.000000
										CHANNELS 3 Xrotation Yrotation Zrotation
										JOINT LeftHandMiddle3
										{
											OFFSET 6.774902 0.000000 0.000000
											CHANNELS 3 Xrotation Yrotation Zrotation
											JOINT LeftHandMiddle4
											{
												OFFSET 5.403328 0.000000 0.000000
												CHANNELS 3 Xrotation Yrotation Zrotation
												End Site
												{
													OFFSET -0.027702 5.403244 0.017414
												}
											}
										}
									}
								}
								JOINT LeftHandRing1
								{
									OFFSET 22.908401 -0.839279 -6.020567
									CHANNELS 3 Xrotation Yrotation Zrotation
									JOINT LeftHandRing2
									{
										OFFSET 6.337502 0.000000 0.000000
										CHANNELS 3 Xrotation Yrotation Zrotation
										JOINT LeftHandRing3
										{
											OFFSET 5.779297 0.000000 0.000000
											CHANNELS 3 Xrotation Yrotation Zrotation
											JOINT LeftHandRing4
											{
												OFFSET 4.965698 0.000000 0.000000
												CHANNELS 3 Xrotation Yrotation Zrotation
												End Site
												{
													OFFSET 0.000000 4.965668 0.016186
												}
											}
										}
									}
								}
								JOINT LeftHandPinky1
								{
									OFFSET 20.037003 -1.530319 -10.950146
									CHANNELS 3 Xrotation Yrotation Zrotation
									JOINT LeftHandPinky2
									{
										OFFSET 5.254700 0.000000 0.000000
										CHANNELS 3 Xrotation Yrotation Zrotation
										JOINT LeftHandPinky3
										{
											OFFSET 4.810204 0.000000 0.000000
											CHANNELS 3 Xrotation Yrotation Zrotation
											JOINT LeftHandPinky4
											{
												OFFSET 3.647202 0.000000 0.000000
												CHANNELS 3 Xrotation Yrotation Zrotation
												End Site
												{
													OFFSET 0.000000 3.647186 0.011889
												}
											}
										}
									}
								}
							}
						}
					}
				}
				JOINT RightShoulder
				{
					OFFSET -15.141001 14.495407 -7.737500
					CHANNELS 3 Xrotation Yrotation Zrotation
					JOINT RightArm
					{
						OFFSET -9.308998 -2.777710 0.208500
						CHANNELS 3 Xrotation Yrotation Zrotation
						JOINT RightForeArm
						{
							OFFSET -29.972300 0.000000 0.000000
							CHANNELS 3 Xrotation Yrotation Zrotation
							JOINT RightHand
							{
								OFFSET -26.026505 0.000000 0.000000
								CHANNELS 3 Xrotation Yrotation Zrotation
								JOINT RightHandThumb1
								{
									OFFSET -12.240601 -7.148026 9.207092
									CHANNELS 3 Xrotation Yrotation Zrotation
									JOINT RightHandThumb2
									{
										OFFSET -4.138618 -2.389435 2.389433
										CHANNELS 3 Xrotation Yrotation Zrotation
										JOINT RightHandThumb3
										{
											OFFSET -2.726974 -1.574417 1.574421
											CHANNELS 3 Xrotation Yrotation Zrotation
											JOINT RightHandThumb4
											{
												OFFSET -3.941010 -2.275345 2.275343
												CHANNELS 3 Xrotation Yrotation Zrotation
												End Site
												{
													OFFSET 0.005814 5.087799 0.009927
												}
											}
										}
									}
								}
								JOINT RightHandIndex1
								{
									OFFSET -24.424698 -1.985657 5.953444
									CHANNELS 3 Xrotation Yrotation Zrotation
									JOINT RightHandIndex2
									{
										OFFSET -6.426697 0.000000 0.000000
										CHANNELS 3 Xrotation Yrotation Zrotation
										JOINT RightHandIndex3
										{
											OFFSET -5.337898 0.000000 0.000000
											CHANNELS 3 Xrotation Yrotation Zrotation
											JOINT RightHandIndex4
											{
												OFFSET -4.409401 0.000000 0.000000
												CHANNELS 3 Xrotation Yrotation Zrotation
												End Site
												{
													OFFSET 0.000000 4.409363 0.014408
												}
											}
										}
									}
								}
								JOINT RightHandMiddle1
								{
									OFFSET -23.810097 0.000000 0.000000
									CHANNELS 3 Xrotation Yrotation Zrotation
									JOINT RightHandMiddle2
									{
										OFFSET -7.176498 0.000000 0.000000
										CHANNELS 3 Xrotation Yrotation Zrotation
										JOINT RightHandMiddle3
										{
											OFFSET -6.774902 0.000000 0.000000
											CHANNELS 3 Xrotation Yrotation Zrotation
											JOINT RightHandMiddle4
											{
												OFFSET -5.403328 0.000000 0.000000
												CHANNELS 3 Xrotation Yrotation Zrotation
												End Site
												{
													OFFSET 0.027702 5.403244 0.017457
												}
											}
										}
									}
								}
								JOINT RightHandRing1
								{
									OFFSET -22.908302 -0.839325 -6.020576
									CHANNELS 3 Xrotation Yrotation Zrotation
									JOINT RightHandRing2
									{
										OFFSET -6.337502 0.000000 0.000000
										CHANNELS 3 Xrotation Yrotation Zrotation
										JOINT RightHandRing3
										{
											OFFSET -5.779297 0.000000 0.000000
											CHANNELS 3 Xrotation Yrotation Zrotation
											JOINT RightHandRing4
											{
												OFFSET -4.965698 0.000000 0.000000
												CHANNELS 3 Xrotation Yrotation Zrotation
												End Site
												{
													OFFSET 0.000000 4.965668 0.016226
												}
											}
										}
									}
								}
								JOINT RightHandPinky1
								{
									OFFSET -20.037003 -1.530334 -10.950259
									CHANNELS 3 Xrotation Yrotation Zrotation
									JOINT RightHandPinky2
									{
										OFFSET -5.254700 0.000000 0.000000
										CHANNELS 3 Xrotation Yrotation Zrotation
										JOINT RightHandPinky3
										{
											OFFSET -4.810204 0.000000 0.000000
											CHANNELS 3 Xrotation Yrotation Zrotation
											JOINT RightHandPinky4
											{
												OFFSET -3.647202 0.000000 0.000000
												CHANNELS 3 Xrotation Yrotation Zrotation
												End Site
												{
													OFFSET 0.000000 3.647186 0.011917
												}
											}
										}
									}
								}
							}
						}
					}
				}
			}
		}
	}
	JOINT LeftUpLeg
	{
		OFFSET 15.427100 -6.655098 0.678600
		CHANNELS 3 Xrotation Yrotation Zrotation
		JOINT LeftLeg
		{
			OFFSET 4.081073 -39.591068 13.024000
			CHANNELS 3 Xrotation Yrotation Zrotation
			JOINT LeftFoot
			{
				OFFSET -4.081074 -37.707932 -15.979700
				CHANNELS 3 Xrotation Yrotation Zrotation
				JOINT LeftToeBase
				{
					OFFSET 5.346399 -15.068900 20.645000
					CHANNELS 3 Xrotation Yrotation Zrotation
					JOINT LeftToe_End
					{
						OFFSET 2.754700 0.931300 11.300900
						CHANNELS 3 Xrotation Yrotation Zrotation
						End Site
						{
							OFFSET 0.000000 11.669021 0.000000
						}
					}
				}
			}
		}
	}
	JOINT RightUpLeg
	{
		OFFSET -15.569500 -6.655098 0.678600
		CHANNELS 3 Xrotation Yrotation Zrotation
		JOINT RightLeg
		{
			OFFSET -4.081825 -39.591045 13.023800
			CHANNELS 3 Xrotation Yrotation Zrotation
			JOINT RightFoot
			{
				OFFSET 4.081824 -37.707954 -15.979600
				CHANNELS 3 Xrotation Yrotation Zrotation
				JOINT RightToeBase
				{
					OFFSET -5.346400 -15.068900 20.645000
					CHANNELS 3 Xrotation Yrotation Zrotation
					JOINT RightToe_End
					{
						OFFSET -2.754700 0.931300 11.300900
						CHANNELS 3 Xrotation Yrotation Zrotation
						End Site
						{
							OFFSET 0.000000 11.669021 0.000000
						}
					}
				}
			}
		}
	}
}
MOTION
Frames: 4
Frame Time: 0.033333
-0.130463 88.252846 -0.032909 -25.314701 -4.168901 -3.764216 17.260784 1.703000 2.307933 11.982775 -0.080821 0.453333 16.688256 -0.184578 0.427711 -17.989994 -0.999968 1.094327 -15.755380 -0.751268 3.147557 -0.000001 -0.000001 0.000000 -3.601054 -8.706419 -4.231795 -23.000102 -28.083421 -69.495358 0.000007 -13.822683 0.000020 -19.818895 -11.339340 -2.272457 -6.141225 -11.690802 -6.761685 9.914107 42.595505 3.409866 -0.422803 8.108092 27.509118 -0.000003 0.000002 0.000002 0.255303 3.378216 -45.814344 5.654099 5.847760 -88.067469 2.162141 4.544802 -50.866362 0.000000 -0.000001 -0.000002 -0.461475 3.841591 -39.722697 6.450748 5.820374 -95.892844 2.182890 4.561568 -51.127740 0.000000 0.000002 0.000001 0.469722 4.966826 -39.799441 8.181035 5.368617 -113.503004 3.200495 5.218121 -63.022968 -0.000002 0.000001 -0.000000 -3.762441 9.063696 -45.253828 5.342536 5.829009 -85.005290 8.716826 5.103321 -119.369181 -0.000003 0.000000 -0.000001 -3.640282 23.363874 0.875783 -19.312471 -7.701802 68.808275 0.000000 31.814659 0.000007 5.302736 5.594394 -0.691818 -7.341115 13.749640 7.412314 9.855819 -44.489089 -3.903247 -0.115774 -14.513071 -28.973874 -0.000001 -0.000001 -0.000002 -0.124376 -2.384788 45.108868 4.500592 -4.654537 88.071150 1.723228 -3.618366 50.920098 -0.000000 -0.000003 -0.000001 -0.761615 -2.932903 39.031051 5.133895 -4.632762 95.881663 1.739750 -3.631700 51.181363 -0.000001 -0.000002 -0.000001 0.154761 -4.068808 39.122664 6.509719 -4.273601 113.462877 2.549571 -4.153911 63.067317 0.000001 0.000001 -0.000000 -4.198881 -8.025506 44.637783 4.252921 -4.639634 85.014811 6.935964 -4.062613 119.322285 -0.000004 -0.000000 -0.000000 10.756724 16.929035 16.467806 31.887281 5.369859 -0.209010 -16.358532 4.449749 -11.759961 -0.001360 -0.000002 -0.000001 -0.000000 -0.000002 -0.000000 10.259872 -16.151333 -13.186883 29.119053 0.333718 -0.409925 -13.687929 -2.234826 10.503549 -0.005266 -0.000002 0.000002 0.000000 -0.000000 0.000000 
-0.066004 88.061600 0.084457 -25.561346 -4.309866 -3.935487 17.803595 1.786652 2.457587 12.399729 -0.093152 0.458693 16.943293 -0.199712 0.438405 -18.342529 -1.041854 1.185856 -15.497756 -0.913010 3.362069 0.000000 0.000000 -0.000000 -3.582217 -8.541645 -4.139462 -23.479771 -27.934357 -69.630814 -0.000000 -14.074511 -0.000006 -19.051170 -11.854180 -1.900660 -6.141220 -11.690801 -6.761683 9.914105 42.595505 3.409869 -0.422801 8.108090 27.509115 -0.000001 0.000001 -0.000003 0.255306 3.378217 -45.814341 5.654101 5.847757 -88.067462 2.162134 4.544799 -50.866362 -0.000001 -0.000004 -0.000002 -0.461473 3.841595 -39.722690 6.450750 5.820374 -95.892844 2.182890 4.561565 -51.127733 0.000000 -0.000004 -0.000002 0.469722 4.966827 -39.799441 8.181028 5.368615 -113.503004 3.200496 5.218120 -63.022968 0.000002 -0.000003 -0.000001 -3.762439 9.063694 -45.253825 5.342539 5.829011 -85.005290 8.716828 5.103320 -119.369181 -0.000001 -0.000001 0.000002 -3.596485 23.299423 0.703895 -19.440103 -7.740943 68.471963 0.000014 32.263304 -0.000013 5.889419 5.585472 -0.337554 -7.341113 13.749646 7.412317 9.855823 -44.489089 -3.903249 -0.115776 -14.513071 -28.973871 -0.000001 0.000001 0.000004 -0.124378 -2.384785 45.108861 4.500590 -4.654542 88.071150 1.723228 -3.618367 50.920102 0.000002 0.000000 -0.000001 -0.761615 -2.932903 39.031051 5.133889 -4.632759 95.881663 1.739741 -3.631698 51.181370 0.000000 0.000004 0.000002 0.154763 -4.068806 39.122668 6.509720 -4.273602 113.462877 2.549568 -4.153909 63.067317 0.000004 0.000001 0.000000 -4.198879 -8.025506 44.637783 4.252913 -4.639630 85.014811 6.935967 -4.062612 119.322285 0.000005 -0.000000 -0.000000 10.973286 16.986650 16.595196 32.312467 5.455189 -0.195349 -16.732128 4.568442 -11.875221 -0.000430 0.000000 -0.000001 -0.000000 0.000000 0.000000 10.380216 -16.000382 -13.055666 29.514333 0.221413 -0.670316 -13.913912 -2.288424 10.721803 -0.005387 -0.000000 0.000003 -0.000000 -0.000000 0.000000 
-0.011963 87.858551 0.211887 -25.713154 -4.459533 -4.031708 18.326154 1.847482 2.562156 12.801414 -0.104644 0.451874 17.154607 -0.213094 0.435209 -18.565417 -1.079590 1.233423 -15.160583 -1.135043 3.597894 -0.000000 0.000000 -0.000000 -3.558130 -8.424966 -4.076100 -23.545913 -27.792765 -69.541687 0.000006 -14.714314 -0.000004 -18.347012 -12.309135 -1.469080 -6.141221 -11.690805 -6.761685 9.914108 42.595501 3.409868 -0.422805 8.108091 27.509116 -0.000001 0.000000 0.000003 0.255306 3.378221 -45.814341 5.654101 5.847762 -88.067462 2.162136 4.544802 -50.866365 0.000001 0.000001 -0.000001 -0.461472 3.841595 -39.722690 6.450749 5.820368 -95.892851 2.182889 4.561565 -51.127733 0.000001 -0.000002 -0.000001 0.469726 4.966826 -39.799441 8.181027 5.368614 -113.503011 3.200494 5.218122 -63.022968 -0.000000 -0.000002 0.000002 -3.762440 9.063696 -45.253825 5.342539 5.829009 -85.005290 8.716826 5.103323 -119.369181 0.000000 0.000003 -0.000001 -3.539836 23.330912 0.576463 -19.343890 -7.793852 68.166995 0.000012 32.995203 -0.000015 6.587415 5.826048 -0.085069 -7.341116 13.749647 7.412314 9.855823 -44.489093 -3.903242 -0.115776 -14.513071 -28.973871 -0.000001 0.000001 0.000003 -0.124378 -2.384786 45.108864 4.500593 -4.654540 88.071150 1.723223 -3.618367 50.920102 -0.000001 -0.000001 0.000000 -0.761616 -2.932904 39.031048 5.133887 -4.632762 95.881663 1.739743 -3.631705 51.181367 -0.000002 0.000000 -0.000000 0.154762 -4.068810 39.122661 6.509716 -4.273603 113.462877 2.549568 -4.153916 63.067324 0.000001 0.000000 -0.000002 -4.198878 -8.025505 44.637779 4.252916 -4.639638 85.014811 6.935964 -4.062614 119.322285 -0.000000 0.000001 -0.000001 11.118737 17.017823 16.661417 32.729478 5.500234 -0.224904 -17.098911 4.716315 -11.952424 -0.000059 -0.000019 0.000003 -0.000000 -0.000000 -0.000000 10.352478 -15.845120 -13.032254 29.976102 0.145581 -0.885926 -14.178304 -2.339026 10.916670 -0.005553 0.000002 0.000001 -0.000000 -0.000000 -0.000000 
0.034059 87.646744 0.350033 -25.764647 -4.611952 -4.051107 18.783891 1.873204 2.631098 13.177465 -0.118246 0.430871 17.308744 -0.228685 0.415803 -18.687638 -1.105973 1.274996 -14.802282 -1.305022 3.791423 0.000001 0.000000 -0.000000 -3.532436 -8.337132 -4.037130 -23.325007 -27.678319 -69.311920 0.000005 -15.558082 0.000014 -17.744683 -12.715933 -1.024709 -6.141222 -11.690800 -6.761685 9.914109 42.595508 3.409869 -0.422804 8.108090 27.509116 0.000002 -0.000000 0.000001 0.255306 3.378218 -45.814344 5.654097 5.847758 -88.067462 2.162139 4.544798 -50.866362 -0.000000 -0.000001 -0.000002 -0.461472 3.841595 -39.722693 6.450750 5.820370 -95.892844 2.182893 4.561567 -51.127733 -0.000004 -0.000003 -0.000002 0.469723 4.966826 -39.799437 8.181032 5.368619 -113.503011 3.200492 5.218119 -63.022968 -0.000003 0.000001 0.000001 -3.762439 9.063689 -45.253825 5.342540 5.829010 -85.005290 8.716826 5.103323 -119.369167 -0.000001 -0.000001 0.000001 -3.486221 23.414447 0.500844 -19.082153 -7.895383 67.972465 -0.000006 33.946293 0.000017 7.333807 6.242360 0.073419 -7.341111 13.749643 7.412316 9.855819 -44.489089 -3.903247 -0.115773 -14.513075 -28.973874 -0.000001 -0.000002 0.000001 -0.124376 -2.384788 45.108864 4.500591 -4.654537 88.071157 1.723224 -3.618365 50.920102 0.000002 -0.000001 -0.000000 -0.761614 -2.932902 39.031048 5.133888 -4.632759 95.881663 1.739748 -3.631703 51.181370 -0.000003 0.000001 0.000000 0.154763 -4.068806 39.122661 6.509719 -4.273600 113.462877 2.549574 -4.153912 63.067317 -0.000003 -0.000001 -0.000001 -4.198879 -8.025506 44.637779 4.252919 -4.639633 85.014811 6.935966 -4.062617 119.322285 0.000004 0.000001 0.000003 11.186264 17.039819 16.680883 33.128514 5.449371 -0.344294 -17.452824 4.938672 -11.935986 0.000029 -0.000002 -0.000005 0.000000 -0.000002 0.000000 10.169147 -15.721593 -13.137926 30.484692 0.187321 -1.007477 -14.474574 -2.376072 11.032048 -0.005454 -0.000017 -0.000002 -0.000000 -0.000000 -0.000000 
